# xmcd CD database file
#
# Track frame offsets:
#	150
#	29040
#	51075
#	71666
#	99831
#	143498
#	163646
#	203067
#	244723
#	272741
#
# Disc length: 4007 seconds
#
# Revision: 0
# Processed by: cddbd v1.5.2PL0 Copyright (c) Steve Scherf et al.
# Submitted via: CDex 1.70beta3
#
DISCID=870fa50a
DTITLE=John Tchicai - In Monk's Mood
DYEAR=2008
DGENRE=Jazz
TTITLE0=Monk's Mood
TTITLE1=Coming on the Hudson
TTITLE2=Light Blue
TTITLE3=Ugly Baeuty
TTITLE4=Round About Midnight
TTITLE5=Cool Copy
TTITLE6=Easy Street
TTITLE7=Ruby My Dear
TTITLE8=Aks Him Now
TTITLE9=Monk's Mood
EXTD=YEAR: 2008
EXTT0=
EXTT1=
EXTT2=
EXTT3=
EXTT4=
EXTT5=
EXTT6=
EXTT7=
EXTT8=
EXTT9=
PLAYORDER=
